<?xml version="1.0" encoding="UTF-8" standalone="no"?>
<svg
   xmlns:dc="http://purl.org/dc/elements/1.1/"
   xmlns:cc="http://creativecommons.org/ns#"
   xmlns:rdf="http://www.w3.org/1999/02/22-rdf-syntax-ns#"
   xmlns:svg="http://www.w3.org/2000/svg"
   xmlns="http://www.w3.org/2000/svg"
   xmlns:sodipodi="http://sodipodi.sourceforge.net/DTD/sodipodi-0.dtd"
   xmlns:inkscape="http://www.inkscape.org/namespaces/inkscape"
   id="icons"
   enable-background="new 0 0 64 64"
   height="512"
   viewBox="0 0 64 64"
   width="512"
   version="1.1"
   sodipodi:docname="electrical-hazard.svg"
   inkscape:version="0.92.4 (unknown)">
  <metadata
     id="metadata72">
    <rdf:RDF>
      <cc:Work
         rdf:about="">
        <dc:format>image/svg+xml</dc:format>
        <dc:type
           rdf:resource="http://purl.org/dc/dcmitype/StillImage" />
      </cc:Work>
    </rdf:RDF>
  </metadata>
  <defs
     id="defs70" />
  <sodipodi:namedview
     pagecolor="#ffffff"
     bordercolor="#666666"
     borderopacity="1"
     objecttolerance="10"
     gridtolerance="10"
     guidetolerance="10"
     inkscape:pageopacity="0"
     inkscape:pageshadow="2"
     inkscape:window-width="640"
     inkscape:window-height="480"
     id="namedview68"
     showgrid="false"
     inkscape:zoom="0.4609375"
     inkscape:cx="256"
     inkscape:cy="256"
     inkscape:window-x="0"
     inkscape:window-y="27"
     inkscape:window-maximized="0"
     inkscape:current-layer="icons" />
  <path
     d="m4.259 58.006c.004 0 .007.002.01.002h55.463c.003 0 .006-.002.01-.002 2.357-.006 4.274-1.924 4.274-4.284 0-.941-.321-1.857-.894-2.605-.003-.003-.003-.008-.005-.012l-27.574-43.236c-.004-.005-.009-.008-.013-.013-.003-.006-.003-.012-.007-.017-.795-1.156-2.113-1.847-3.523-1.847s-2.728.69-3.523 1.848c-.004.005-.004.011-.007.017-.004.005-.009.008-.013.013l-27.574 43.234c-.002.004-.002.009-.005.012-.572.748-.894 1.664-.894 2.605 0 2.361 1.917 4.279 4.275 4.285zm27.741-50.014c.75 0 1.45.366 1.874.979l27.558 43.21c.014.021.033.038.049.059.008.011.01.024.019.035.338.414.517.915.517 1.447 0 1.26-1.024 2.285-2.284 2.285-.002 0-.003.001-.005.001h-55.455c-.002 0-.003-.001-.005-.001-1.26 0-2.284-1.025-2.284-2.285 0-.532.179-1.033.517-1.447.009-.011.011-.024.019-.035.016-.021.035-.037.049-.059l27.558-43.21c.423-.613 1.123-.979 1.873-.979z"
     id="path61"
     style="fill:#ffffff" />
  <path
     d="m3.354 52.78-.08.129c-.132.163-.289.436-.289.813 0 .679.527 1.235 1.193 1.282l55.544.004.102-.004c.666-.048 1.192-.604 1.192-1.282 0-.377-.157-.649-.285-.812l-.093-.144c-.026-.036-.054-.069-.085-.104l-27.53-43.16c-.484-.648-1.518-.71-2.088.062l-27.489 43.1c-.033.037-.064.075-.092.116zm28.644-41.171 26.402 41.399h-52.801z"
     id="path63"
     style="fill:#ffffff" />
  <path
     d="m37.909 37.423c.011-.023.014-.05.022-.074.038-.105.063-.21.064-.318 0-.005.003-.009.003-.014 0-.014-.007-.025-.008-.038-.005-.113-.024-.222-.065-.327-.011-.026-.026-.049-.039-.074-.043-.087-.093-.166-.16-.238-.03-.032-.065-.055-.1-.083-.047-.039-.084-.087-.14-.117-.021-.011-.043-.01-.063-.02-.049-.023-.103-.033-.155-.048-.074-.021-.145-.042-.22-.045-.018-.001-.032-.01-.05-.01h-8.296l5.188-9.52c.265-.485.086-1.092-.399-1.356-.486-.265-1.092-.086-1.356.399l-5.985 10.982c-.086.147-.149.311-.149.494 0 .373.213.686.516.857.01.006.015.016.024.021.005.003.01.003.015.006.045.022.091.038.14.055.091.031.184.052.278.056.01.001.018.006.027.006h8.324l-4.088 7.5-.271-.815c-.175-.524-.74-.805-1.265-.634-.524.175-.808.741-.634 1.265l.998 2.998c.037.11.093.209.16.296.014.018.032.029.047.046.067.075.143.139.228.19.014.008.021.022.036.03.037.021.076.03.114.045.029.012.056.024.086.033.092.027.185.044.277.044h.001c.002 0 .003-.001.005-.001.097 0 .191-.018.284-.046.009-.002.018-.001.026-.004l3.001-.998c.524-.175.808-.741.634-1.265-.175-.525-.74-.806-1.265-.634l-.593.197 4.779-8.77c.014-.022.013-.048.024-.071z"
     id="path65"
     style="fill:#ffffff" />
</svg>
