<?xml version="1.0" encoding="UTF-8" standalone="no"?>
<svg
   xmlns:dc="http://purl.org/dc/elements/1.1/"
   xmlns:cc="http://creativecommons.org/ns#"
   xmlns:rdf="http://www.w3.org/1999/02/22-rdf-syntax-ns#"
   xmlns:svg="http://www.w3.org/2000/svg"
   xmlns="http://www.w3.org/2000/svg"
   xmlns:sodipodi="http://sodipodi.sourceforge.net/DTD/sodipodi-0.dtd"
   xmlns:inkscape="http://www.inkscape.org/namespaces/inkscape"
   height="512pt"
   viewBox="-52 0 512 512"
   width="512pt"
   version="1.1"
   id="svg4"
   sodipodi:docname="open-padlock.svg"
   inkscape:version="0.92.4 (unknown)">
  <metadata
     id="metadata10">
    <rdf:RDF>
      <cc:Work
         rdf:about="">
        <dc:format>image/svg+xml</dc:format>
        <dc:type
           rdf:resource="http://purl.org/dc/dcmitype/StillImage" />
      </cc:Work>
    </rdf:RDF>
  </metadata>
  <defs
     id="defs8" />
  <sodipodi:namedview
     pagecolor="#ffffff"
     bordercolor="#666666"
     borderopacity="1"
     objecttolerance="10"
     gridtolerance="10"
     guidetolerance="10"
     inkscape:pageopacity="0"
     inkscape:pageshadow="2"
     inkscape:window-width="744"
     inkscape:window-height="480"
     id="namedview6"
     showgrid="false"
     inkscape:zoom="0.34570313"
     inkscape:cx="341.33333"
     inkscape:cy="341.33333"
     inkscape:window-x="0"
     inkscape:window-y="27"
     inkscape:window-maximized="0"
     inkscape:current-layer="svg4" />
  <path
     d="m408 248v60c0 36.308594-9.664062 71.96875-27.949219 103.125-5.589843 9.523438-17.847656 12.714844-27.371093 7.125-9.527344-5.59375-12.71875-17.847656-7.125-27.371094 14.683593-25.023437 22.445312-53.683594 22.445312-82.878906v-60c0-11.027344-8.972656-20-20-20h-288c-11.027344 0-20 8.972656-20 20v60c0 90.429688 73.570312 164 164 164 26.738281 0 52.222656-6.222656 75.746094-18.5 9.792968-5.109375 21.875-1.3125 26.984375 8.480469s1.3125 21.875-8.476563 26.984375c-28.882812 15.070312-61.476562 23.035156-94.253906 23.035156-112.484375 0-204-91.515625-204-204v-60c0-33.085938 26.914062-60 60-60h33v-90.027344c0-54.023437 44.859375-97.972656 100-97.972656h21c55.140625 0 100 43.949219 100 97.972656v30.027344c0 11.046875-8.953125 20-20 20s-20-8.953125-20-20v-30.027344c0-31.964844-26.914062-57.972656-60-57.972656h-21c-33.085938 0-60 26.007812-60 57.972656v90.027344h215c33.085938 0 60 26.914062 60 60zm-204.035156 162c11.042968 0 20-8.953125 20-20v-43.855469c10.242187-6.578125 17.035156-18.066406 17.035156-31.144531 0-20.433594-16.566406-37-37-37s-37 16.566406-37 37c0 13.046875 6.761719 24.511719 16.964844 31.097656v43.902344c0 11.046875 8.953125 20 20 20zm0 0"
     id="path2"
     style="fill:#ffffff" />
</svg>
