<?xml version="1.0" encoding="UTF-8" standalone="no"?>
<!-- Generator: Adobe Illustrator 19.0.0, SVG Export Plug-In . SVG Version: 6.00 Build 0)  -->

<svg
   xmlns:dc="http://purl.org/dc/elements/1.1/"
   xmlns:cc="http://creativecommons.org/ns#"
   xmlns:rdf="http://www.w3.org/1999/02/22-rdf-syntax-ns#"
   xmlns:svg="http://www.w3.org/2000/svg"
   xmlns="http://www.w3.org/2000/svg"
   xmlns:sodipodi="http://sodipodi.sourceforge.net/DTD/sodipodi-0.dtd"
   xmlns:inkscape="http://www.inkscape.org/namespaces/inkscape"
   version="1.1"
   id="Capa_1"
   x="0px"
   y="0px"
   viewBox="0 0 512.002 512.002"
   style="enable-background:new 0 0 512.002 512.002;"
   xml:space="preserve"
   sodipodi:docname="air-filter.svg"
   inkscape:version="0.92.4 (unknown)"><metadata
   id="metadata145"><rdf:RDF><cc:Work
       rdf:about=""><dc:format>image/svg+xml</dc:format><dc:type
         rdf:resource="http://purl.org/dc/dcmitype/StillImage" /></cc:Work></rdf:RDF></metadata><defs
   id="defs143" /><sodipodi:namedview
   pagecolor="#ffffff"
   bordercolor="#666666"
   borderopacity="1"
   objecttolerance="10"
   gridtolerance="10"
   guidetolerance="10"
   inkscape:pageopacity="0"
   inkscape:pageshadow="2"
   inkscape:window-width="640"
   inkscape:window-height="480"
   id="namedview141"
   showgrid="false"
   inkscape:zoom="0.46093569"
   inkscape:cx="256.00101"
   inkscape:cy="256.00101"
   inkscape:window-x="0"
   inkscape:window-y="27"
   inkscape:window-maximized="0"
   inkscape:current-layer="Capa_1" />
<g
   id="g78"
   style="fill:#ffffff">
	<g
   id="g76"
   style="fill:#ffffff">
		<path
   d="M502.002,54.001h-448c-5.523,0-10,4.477-10,10v49.987c0,5.523,4.477,10,10,10s10-4.477,10-10V74.001h61v33    c0,5.523,4.477,10,10,10s10-4.477,10-10v-33h41v33c0,5.523,4.477,10,10,10s10-4.477,10-10v-33h41V405.26c0,5.523,4.477,10,10,10    s10-4.477,10-10V74.001h41v288.741c0,5.523,4.477,10,10,10s10-4.477,10-10V74.001h41V405.26c0,5.523,4.477,10,10,10    s10-4.477,10-10V74.001h42v288.741c0,5.523,4.477,10,10,10s10-4.477,10-10V74.001h41v364h-286v-33.259c0-5.523-4.477-10-10-10    s-10,4.477-10,10v33.259h-41v-33.259c0-5.523-4.477-10-10-10s-10,4.477-10,10v33.259h-61v-40.012c0-5.523-4.477-10-10-10    s-10,4.477-10,10v50.012c0,5.523,4.477,10,10,10h448c5.523,0,10-4.477,10-10v-384C512.002,58.478,507.525,54.001,502.002,54.001z"
   id="path74"
   style="fill:#ffffff" />
	</g>
</g>
<g
   id="g84"
   style="fill:#ffffff">
	<g
   id="g82"
   style="fill:#ffffff">
		<path
   d="M219.488,248.923l-20.105-20.106c-3.905-3.905-10.237-3.905-14.142,0c-3.905,3.905-3.906,10.237,0,14.142l3.036,3.037    h-3.504c-0.047,0-0.094,0-0.142,0c-10.22,0-20.418,2.45-29.499,7.089c-12.771,6.525-28.023,6.525-40.794,0    c-18.47-9.435-40.522-9.435-58.992,0c-12.771,6.524-28.022,6.524-40.794,0c-4.92-2.513-10.942-0.563-13.455,4.356    c-2.513,4.918-0.562,10.942,4.356,13.455c18.47,9.435,40.522,9.434,58.992,0c12.771-6.524,28.023-6.524,40.795,0    c9.235,4.717,19.365,7.076,29.496,7.076c10.13,0,20.261-2.359,29.496-7.076c6.306-3.221,13.387-4.898,20.52-4.899h3.523    l-3.033,3.033c-3.906,3.903-3.906,10.235-0.001,14.14c1.953,1.953,4.512,2.929,7.071,2.929s5.119-0.976,7.071-2.929l20.105-20.105    C223.393,259.16,223.393,252.828,219.488,248.923z"
   id="path80"
   style="fill:#ffffff" />
	</g>
</g>
<g
   id="g90"
   style="fill:#ffffff">
	<g
   id="g88"
   style="fill:#ffffff">
		<path
   d="M219.49,329.216l-20.197-20.197c-3.905-3.906-10.237-3.905-14.142,0c-3.905,3.905-3.906,10.237,0,14.142l3.128,3.128    h-3.504c-0.047,0-0.094,0-0.142,0c-10.22,0-20.418,2.45-29.499,7.089c-12.771,6.525-28.023,6.524-40.794,0    c-18.47-9.435-40.522-9.435-58.992,0c-12.771,6.524-28.022,6.524-40.794,0c-4.92-2.514-10.942-0.563-13.455,4.356    c-2.513,4.918-0.562,10.942,4.356,13.455c18.47,9.435,40.522,9.434,58.992,0c12.769-6.527,28.021-6.527,40.793-0.002    c9.235,4.717,19.365,7.076,29.496,7.076c10.13,0,20.261-2.359,29.496-7.076c6.306-3.221,13.387-4.885,20.52-4.899h3.523    l-3.124,3.124c-3.905,3.905-3.905,10.237,0,14.143c1.953,1.953,4.512,2.929,7.071,2.929c2.559,0,5.119-0.976,7.071-2.929    l20.197-20.197C223.395,339.453,223.395,333.121,219.49,329.216z"
   id="path86"
   style="fill:#ffffff" />
	</g>
</g>
<g
   id="g96"
   style="fill:#ffffff">
	<g
   id="g94"
   style="fill:#ffffff">
		<path
   d="M219.489,168.222l-19.608-19.608c-3.905-3.905-10.237-3.905-14.143,0c-3.906,3.905-3.905,10.237,0,14.143l2.539,2.539    h-3.504c-0.047,0-0.094,0-0.141,0c-10.221,0-20.419,2.45-29.5,7.088c-12.772,6.525-28.023,6.524-40.794,0    c-18.469-9.435-40.522-9.435-58.992,0c-12.772,6.524-28.021,6.525-40.794,0c-4.92-2.513-10.942-0.563-13.455,4.356    s-0.563,10.94,4.356,13.453c18.469,9.435,40.521,9.436,58.992,0c12.772-6.524,28.023-6.524,40.795,0    c9.236,4.718,19.364,7.077,29.496,7.077c10.129-0.001,20.262-2.359,29.496-7.077c6.276-3.206,13.327-4.899,20.421-4.899    c0.033,0,0.066,0,0.099,0h3.523l-2.536,2.536c-3.905,3.905-3.905,10.237,0,14.142c1.953,1.953,4.512,2.929,7.071,2.929    s5.119-0.977,7.071-2.929l19.608-19.608C223.394,178.459,223.394,172.127,219.489,168.222z"
   id="path92"
   style="fill:#ffffff" />
	</g>
</g>
<g
   id="g102"
   style="fill:#ffffff">
	<g
   id="g100"
   style="fill:#ffffff">
		<path
   d="M448.072,398.191c-1.86-1.86-4.44-2.93-7.07-2.93s-5.21,1.07-7.07,2.93s-2.93,4.44-2.93,7.07s1.07,5.21,2.93,7.07    c1.86,1.86,4.44,2.93,7.07,2.93s5.21-1.07,7.07-2.93s2.93-4.44,2.93-7.07S449.932,400.051,448.072,398.191z"
   id="path98"
   style="fill:#ffffff" />
	</g>
</g>
<g
   id="g108"
   style="fill:#ffffff">
	<g
   id="g106"
   style="fill:#ffffff">
		<path
   d="M325.072,398.191c-1.86-1.86-4.44-2.93-7.07-2.93s-5.21,1.07-7.07,2.93s-2.93,4.44-2.93,7.07s1.07,5.21,2.93,7.07    c1.86,1.86,4.44,2.93,7.07,2.93s5.21-1.07,7.07-2.93s2.93-4.44,2.93-7.07S326.932,400.051,325.072,398.191z"
   id="path104"
   style="fill:#ffffff" />
	</g>
</g>
<g
   id="g110">
</g>
<g
   id="g112">
</g>
<g
   id="g114">
</g>
<g
   id="g116">
</g>
<g
   id="g118">
</g>
<g
   id="g120">
</g>
<g
   id="g122">
</g>
<g
   id="g124">
</g>
<g
   id="g126">
</g>
<g
   id="g128">
</g>
<g
   id="g130">
</g>
<g
   id="g132">
</g>
<g
   id="g134">
</g>
<g
   id="g136">
</g>
<g
   id="g138">
</g>
</svg>